<?xml version="1.0" encoding="UTF-8"?>
<svg version="1.1" xmlns="http://www.w3.org/2000/svg" width="1000" height="1000">
<path d="M0 0 C32.88337308 -0.55002906 65.76554795 -0.97257068 98.65247566 -1.22556791 C102.53997176 -1.2555828 106.42745881 -1.28664673 110.31494141 -1.31835938 C111.47577265 -1.32780255 111.47577265 -1.32780255 112.66005503 -1.3374365 C125.17120513 -1.44171135 137.6796932 -1.63083953 150.18926693 -1.85166711 C163.03740909 -2.07656977 175.88416318 -2.20950342 188.73419273 -2.25812387 C196.6574035 -2.29097095 204.57309214 -2.39441341 212.49398409 -2.58999521 C218.58153672 -2.73259752 224.66270565 -2.74682366 230.75211716 -2.71458435 C233.23971985 -2.72116205 235.72761916 -2.76859433 238.21351624 -2.8609314 C253.54778177 -3.40234346 253.54778177 -3.40234346 260 0 C265.96400868 5.96969941 269.43559474 13.56564947 272.76417994 21.21798038 C274.31067886 24.69938554 276.14082991 27.86635757 278.12109375 31.1171875 C279.22715464 33.03611715 280.33263857 34.95537949 281.4375 36.875 C282.05036865 37.93831543 282.6632373 39.00163086 283.29467773 40.09716797 C285.82921411 44.49458374 288.36230905 48.89282921 290.89550781 53.29101562 C297.56956312 64.87681766 304.25464084 76.45553353 311 88 C317.74701194 99.54729516 324.43339318 111.12902027 331.10888672 122.71777344 C334.23680148 128.14659942 337.36858448 133.57319281 340.5 139 C341.75001879 141.16665583 343.00001878 143.3333225 344.25 145.5 C344.86875 146.5725 345.4875 147.645 346.125 148.75 C381.75 210.49999999 381.75 210.49999999 383.62524414 213.75048828 C384.87435518 215.91557071 386.12354129 218.08060982 387.37280273 220.24560547 C390.51202309 225.68615706 393.64990563 231.12747216 396.78515625 236.5703125 C404.08082074 249.23231844 411.40891957 261.87465456 418.78125 274.4921875 C419.29816406 275.38518555 419.81507813 276.27818359 420.34765625 277.19824219 C421.53474726 279.21110513 422.75500902 281.20454228 423.99609375 283.18457031 C424.97255859 284.7677002 424.97255859 284.7677002 425.96875 286.3828125 C426.87270508 287.81584717 426.87270508 287.81584717 427.79492188 289.27783203 C429.22321672 292.50422739 429.14776804 293.70664727 428 297 C426.83935547 299.3581543 426.83935547 299.3581543 425.3671875 301.82421875 C424.81619385 302.75669434 424.2652002 303.68916992 423.69750977 304.64990234 C423.09608154 305.65230957 422.49465332 306.6547168 421.875 307.6875 C420.58913841 309.86025981 419.30400648 312.03345157 418.01953125 314.20703125 C417.3538916 315.32932129 416.68825195 316.45161133 416.00244141 317.60791016 C412.81524874 323.00694148 409.68875325 328.4405284 406.5625 333.875 C405.30346844 336.05994368 404.04435339 338.24483925 402.78515625 340.4296875 C402.16012207 341.51475586 401.53508789 342.59982422 400.89111328 343.71777344 C397.76319852 349.14659942 394.63141552 354.57319281 391.5 360 C390.24998121 362.16665583 388.99998122 364.3333225 387.75 366.5 C380.25 379.5 372.75 392.5 365.25 405.5 C364.63116943 406.57266113 364.01233887 407.64532227 363.37475586 408.75048828 C362.12564482 410.91557071 360.87645871 413.08060982 359.62719727 415.24560547 C356.48797691 420.68615706 353.35009437 426.12747216 350.21484375 431.5703125 C343.59777108 443.0544882 336.95366023 454.52196894 330.26708984 465.96582031 C324.10080946 476.52620282 317.9950405 487.12126766 311.89111328 497.71777344 C308.76319852 503.14659942 305.63141552 508.57319281 302.5 514 C301.24998121 516.16665583 299.99998122 518.3333225 298.75 520.5 C296.25 524.83333333 293.75 529.16666667 291.25 533.5 C290.63116943 534.57266113 290.01233887 535.64532227 289.37475586 536.75048828 C288.12564482 538.91557071 286.87645871 541.08060982 285.62719727 543.24560547 C282.48797691 548.68615706 279.35009437 554.12747216 276.21484375 559.5703125 C269.59777108 571.0544882 262.95366023 582.52196894 256.26708984 593.96582031 C250.10080946 604.52620282 243.9950405 615.12126766 237.89111328 625.71777344 C234.76319852 631.14659942 231.63141552 636.57319281 228.5 642 C227.24998121 644.16665583 225.99998122 646.3333225 224.75 648.5 C222.25 652.83333333 219.75 657.16666667 217.25 661.5 C216.63116943 662.57266113 216.01233887 663.64532227 215.37475586 664.75048828 C214.12564482 666.91557071 212.87645871 669.08060982 211.62719727 671.24560547 C208.48797691 676.68615706 205.35009437 682.12747216 202.21484375 687.5703125 C195.60661844 699.03913329 188.97282225 710.49213429 182.29345703 721.91967773 C177.1229169 730.77244717 171.99854106 739.6514712 166.88476562 748.53710938 C165.99241211 750.08688477 165.99241211 750.08688477 165.08203125 751.66796875 C164.55843018 752.57828857 164.0348291 753.4886084 163.49536133 754.42651367 C163.00189209 755.27576416 162.50842285 756.12501465 162 757 C161.68752917 757.86567691 161.37505835 758.73135382 161.05311871 759.62326336 C159 762 159 762 157.00022089 762.45703852 C154.20716594 762.63544413 151.45338371 762.64144684 148.65473938 762.60127258 C147.57820183 762.60554471 146.50166429 762.60981683 145.39250439 762.61421841 C141.76686832 762.62248752 138.14237609 762.59489706 134.5168457 762.56762695 C131.92530342 762.56621734 129.33375914 762.56700676 126.74221802 762.56983948 C121.15345113 762.57246355 115.56497569 762.55675237 109.97628212 762.52865028 C101.89598274 762.48804586 93.81582455 762.47499624 85.7354342 762.46871033 C72.62619586 762.4577623 59.51711292 762.42447442 46.40795898 762.37719727 C33.67228982 762.33131476 20.93666284 762.29591648 8.20092773 762.2746582 C7.41613607 762.27334459 6.6313444 762.27203097 5.82277117 762.27067754 C1.8857726 762.26415244 -2.05122627 762.25783388 -5.98822534 762.25161803 C-38.65893004 762.1997692 -71.32944424 762.11169021 -104 762 C-102.73685859 759.62025985 -101.47243185 757.24121744 -100.20727539 754.86254883 C-99.85350075 754.19572334 -99.4997261 753.52889786 -99.13523102 752.84186554 C-96.04591984 747.03754027 -92.78234688 741.34831569 -89.4375 735.6875 C-88.21685403 733.60842148 -86.99682356 731.52898149 -85.77734375 729.44921875 C-85.15585449 728.39009277 -84.53436523 727.3309668 -83.89404297 726.23974609 C-80.73772646 720.84089071 -77.61961703 715.42011674 -74.5 710 C-69.69179129 701.65183832 -64.86094197 693.3175661 -60 685 C-53.25286886 673.45277514 -46.5666063 661.87097881 -39.89111328 650.28222656 C-36.76319852 644.85340058 -33.63141552 639.42680719 -30.5 634 C-29.24998121 631.83334417 -27.99998122 629.6666775 -26.75 627.5 C-24.25 623.16666667 -21.75 618.83333333 -19.25 614.5 C-18.63116943 613.42733887 -18.01233887 612.35467773 -17.37475586 611.24951172 C-16.12564482 609.08442929 -14.87645871 606.91939018 -13.62719727 604.75439453 C-10.48797691 599.31384294 -7.35009437 593.87252784 -4.21484375 588.4296875 C2.40222892 576.9455118 9.04633977 565.47803106 15.73291016 554.03417969 C21.89919054 543.47379718 28.0049595 532.87873234 34.10888672 522.28222656 C37.23680148 516.85340058 40.36858448 511.42680719 43.5 506 C44.75001879 503.83334417 46.00001878 501.6666775 47.25 499.5 C54.75 486.5 62.25 473.5 69.75 460.5 C70.36883057 459.42733887 70.98766113 458.35467773 71.62524414 457.24951172 C72.87435518 455.08442929 74.12354129 452.91939018 75.37280273 450.75439453 C78.51202309 445.31384294 81.64990563 439.87252784 84.78515625 434.4296875 C90.95203084 423.72717611 97.138579 413.03715915 103.375 402.375 C107.59149541 395.16592773 111.75292954 387.93213761 115.82324219 380.63964844 C118.75836397 375.39430178 121.7973771 370.21472539 124.85742188 365.04150391 C129.35558232 357.42491377 133.76333028 349.75671801 138.17675781 342.09082031 C141.95895678 335.5257452 145.75970471 328.97215011 149.5871582 322.43334961 C151.33174146 319.44899969 153.06651261 316.45910204 154.80078125 313.46875 C156.81554818 310.00139233 158.8714456 306.56700792 160.98046875 303.15625 C161.42148926 302.42486816 161.86250977 301.69348633 162.31689453 300.93994141 C163.1175381 299.61264951 163.93623308 298.29599174 164.77685547 296.99365234 C165.99360414 295.06638497 165.99360414 295.06638497 167 292 C165.93422064 288.73806013 165.93422064 288.73806013 164 286 C163.484375 284.906875 162.96875 283.81375 162.4375 282.6875 C161.27856424 279.89854759 161.27856424 279.89854759 159 279 C157.89270545 277.07801205 156.86126017 275.11181397 155.875 273.125 C155.33617187 272.05507813 154.79734375 270.98515625 154.2421875 269.8828125 C153 267 153 267 153 264 C152.34 264 151.68 264 151 264 C149.5393715 261.35261084 149 260.10551666 149 257 C148.34 257 147.68 257 147 257 C146.34 255.02 145.68 253.04 145 251 C144.34 251 143.68 251 143 251 C142.71125 250.030625 142.4225 249.06125 142.125 248.0625 C141.35785318 244.89335797 141.35785318 244.89335797 139 244 C137.92684374 241.6748281 136.93629474 239.37828878 136 237 C135.608125 236.030625 135.21625 235.06125 134.8125 234.0625 C134.544375 233.381875 134.27625 232.70125 134 232 C133.34 232 132.68 232 132 232 C130.5393715 229.35261084 130 228.10551666 130 225 C129.34 225 128.68 225 128 225 C127.01 221.535 127.01 221.535 126 218 C125.34 218 124.68 218 124 218 C123.484375 216.9275 122.96875 215.855 122.4375 214.75 C120.0741911 209.98949964 117.34391426 205.47011213 114.5859375 200.9296875 C113 198 113 198 111.9140625 194.6953125 C111.30457889 191.85920012 111.30457889 191.85920012 109 191 C106.00750598 187.01000797 103.47414857 183.0575847 103 178 C102.34 178 101.68 178 101 178 C99.5393715 175.35261084 99 174.10551666 99 171 C98.34 171 97.68 171 97 171 C95.5393715 168.35261084 95 167.10551666 95 164 C94.34 164 93.68 164 93 164 C92.01 160.535 92.01 160.535 91 157 C90.34 157 89.68 157 89 157 C88.3490741 155.75264433 87.70448331 154.50198168 87.0625 153.25 C86.70285156 152.55390625 86.34320313 151.8578125 85.97265625 151.140625 C85.04441818 149.09775567 84.46833422 147.18884624 84 145 C83.34 145 82.68 145 82 145 C81.01 141.535 81.01 141.535 80 138 C79.34 138 78.68 138 78 138 C77.58105469 137.13761719 77.16210938 136.27523437 76.73046875 135.38671875 C74.50356621 131.02842416 71.96601686 126.88816439 69.42578125 122.70703125 C68 120 68 120 68 117 C67.34 117 66.68 117 66 117 C65.66226563 116.28972656 65.32453125 115.57945312 64.9765625 114.84765625 C64.53054688 113.92855469 64.08453125 113.00945312 63.625 112.0625 C62.96371094 110.68771484 62.96371094 110.68771484 62.2890625 109.28515625 C61.20800838 106.87096198 61.20800838 106.87096198 59 106 C57.6250851 103.09740189 57 101.23861295 57 98 C56.34 98 55.68 98 55 98 C53.5393715 95.35261084 53 94.10551666 53 91 C52.34 91 51.68 91 51 91 C49.5393715 88.35261084 49 87.10551666 49 84 C48.34 84 47.68 84 47 84 C46.566875 82.7934375 46.566875 82.7934375 46.125 81.5625 C45.26737432 78.8673532 45.26737432 78.8673532 43 78 C42.33333333 76 41.66666667 74 41 72 C40.34 71.67 39.68 71.34 39 71 C38.06238879 69.38901347 37.19608599 67.73588285 36.375 66.0625 C35.92898437 65.16660156 35.48296875 64.27070313 35.0234375 63.34765625 C34 61 34 61 34 59 C33.34 59 32.68 59 32 59 C31.34 56.69 30.68 54.38 30 52 C29.34 52 28.68 52 28 52 C27.195625 50.3603125 27.195625 50.3603125 26.375 48.6875 C23.02192644 41.98135288 19.42275958 35.40177163 15.625 28.9375 C14 26 14 26 14 24 C13.34 24 12.68 24 12 24 C11.16180842 22.37750059 10.3295884 20.75191503 9.5 19.125 C8.80390625 17.76761719 8.80390625 17.76761719 8.09375 16.3828125 C7 14 7 14 7 12 C6.34 12 5.68 12 5 12 C4.34 9.69 3.68 7.38 3 5 C2.34 5 1.68 5 1 5 C0.505 2.525 0.505 2.525 0 0 Z " fill="#000000" transform="translate(200,122)"/>
<path d="M0 0 C32.95185281 -0.3893299 65.90310798 -0.6887707 98.85673698 -0.8681106 C102.7493844 -0.88937196 106.6420273 -0.9113755 110.53466797 -0.93383789 C111.30960471 -0.93829717 112.08454144 -0.94275645 112.88296111 -0.94735085 C125.42197205 -1.021274 137.9596546 -1.15527967 150.49787812 -1.31159753 C163.36868469 -1.47072038 176.23879691 -1.56502845 189.11054671 -1.59950441 C197.05055132 -1.62280431 204.98680173 -1.69629785 212.92564996 -1.83457994 C219.01937677 -1.93529913 225.10989355 -1.94570661 231.20454788 -1.92283058 C233.70004617 -1.92750251 236.1956882 -1.96126119 238.69033813 -2.02649307 C257.06157019 -2.48325802 257.06157019 -2.48325802 261.9611764 1.65738416 C265.26066245 5.67878419 267.32268258 10.08399182 269.1642487 14.91810048 C270.38745651 17.96517412 272.02030253 20.63340836 273.73046875 23.43359375 C274.88355831 25.43446621 276.03589289 27.43577394 277.1875 29.4375 C278.4830528 31.68620951 279.77862632 33.93490708 281.07421875 36.18359375 C281.72438965 37.31265137 282.37456055 38.44170898 283.04443359 39.60498047 C286.19332051 45.07169975 289.3467849 50.53577646 292.5 56 C296.26365365 62.52232439 300.02644623 69.04513763 303.78515625 75.5703125 C309.83055159 86.06232094 315.89110219 96.54481676 322 107 C328.74701194 118.54729516 335.43339318 130.12902027 342.10888672 141.71777344 C345.23680148 147.14659942 348.36858448 152.57319281 351.5 158 C352.75001879 160.16665583 354.00001878 162.3333225 355.25 164.5 C355.86875 165.5725 356.4875 166.645 357.125 167.75 C392.75 229.5 392.75 229.5 394.62646484 232.75268555 C395.87141282 234.91049803 397.1165289 237.06821353 398.36181641 239.22583008 C401.56552651 244.77716592 404.7659363 250.33036541 407.9609375 255.88671875 C408.6118335 257.01762939 409.26272949 258.14854004 409.93334961 259.3137207 C411.21130708 261.53427826 412.48819166 263.75545368 413.76391602 265.97729492 C416.43520837 270.61660718 419.12061634 275.23877274 421.94140625 279.7890625 C422.58456787 280.82994019 422.58456787 280.82994019 423.24072266 281.8918457 C424.33592556 283.64948773 425.44649407 285.3975312 426.55859375 287.14453125 C428.12566766 290.24895137 428.32301492 291.59089163 428 295 C426.95288086 297.3581543 426.95288086 297.3581543 425.46484375 299.82421875 C424.91062744 300.75669434 424.35641113 301.68916992 423.78540039 302.64990234 C423.17559326 303.65230957 422.56578613 304.6547168 421.9375 305.6875 C420.64240439 307.86018566 419.34816191 310.03338004 418.0546875 312.20703125 C417.38276367 313.32932129 416.71083984 314.45161133 416.01855469 315.60791016 C412.81087321 320.99827379 409.68742643 326.43638249 406.5625 331.875 C405.30359097 334.06001428 404.04447523 336.24490947 402.78515625 338.4296875 C402.16012207 339.51475586 401.53508789 340.59982422 400.89111328 341.71777344 C397.13971976 348.22871257 393.38309006 354.73663194 389.62744141 361.24511719 C386.48817754 366.68585336 383.35018503 372.12731477 380.21484375 377.5703125 C373.59777108 389.0544882 366.95366023 400.52196894 360.26708984 411.96582031 C354.10080946 422.52620282 347.9950405 433.12126766 341.89111328 443.71777344 C338.76319852 449.14659942 335.63141552 454.57319281 332.5 460 C331.24998121 462.16665583 329.99998122 464.3333225 328.75 466.5 C316.25 488.16666667 303.75 509.83333333 291.25 531.5 C290.3206665 533.11092529 290.3206665 533.11092529 289.37255859 534.75439453 C288.13088473 536.9065213 286.88902478 539.05854073 285.64697266 541.21044922 C282.73833177 546.25030977 279.83148102 551.29117492 276.93145752 556.33599854 C275.90724335 558.11749578 274.88242349 559.89864322 273.85742188 561.6796875 C272.57366625 563.91076625 271.29104061 566.14249573 270.00976562 568.375 C269.42646484 569.38820313 268.84316406 570.40140625 268.2421875 571.4453125 C267.7354248 572.32719238 267.22866211 573.20907227 266.70654297 574.11767578 C266.14338379 575.06884277 265.58022461 576.02000977 265 577 C264.55899561 577.98883942 264.55899561 577.98883942 264.10908204 578.99765539 C262.5137534 582.19525956 261.32607268 584.55073497 257.82732999 585.73608685 C255.02053394 586.01278309 252.3101202 586.02768506 249.49015808 585.96203613 C248.42007879 585.96887153 247.3499995 585.97570693 246.24749357 585.98274946 C242.65504146 585.99594713 239.06556612 585.95189916 235.47338867 585.90820312 C232.90125601 585.90594698 230.32911819 585.90721231 227.75698853 585.91174316 C222.21608242 585.91593683 216.67593029 585.89085165 211.13521385 585.84584045 C203.1244184 585.78080543 195.11398728 585.75998725 187.10295645 585.74993652 C174.10562173 585.73243016 161.10868883 585.67919854 148.11157227 585.60351562 C135.48659271 585.53007615 122.86172231 585.47345254 110.23657227 585.43945312 C109.45828004 585.43735134 108.67998781 585.43524955 107.87811097 585.43308407 C103.97362223 585.42264372 100.06913272 585.41253407 96.16464269 585.40258884 C63.77613644 585.31966343 31.38812401 585.17876615 -1 585 C-0.67 584.34 -0.34 583.68 0 583 C0.66 583 1.32 583 2 583 C2.09821045 582.2972998 2.1964209 581.59459961 2.29760742 580.87060547 C3.12030587 577.50832242 4.48662984 575.05513217 6.23828125 572.0703125 C7.22151367 570.38228516 7.22151367 570.38228516 8.22460938 568.66015625 C8.92037377 567.48165324 9.61633879 566.30326865 10.3125 565.125 C10.99740453 563.95481298 11.68165551 562.78424317 12.36523438 561.61328125 C13.67039816 559.38059638 14.97799197 557.14932978 16.28833008 554.91967773 C18.21843513 551.62740469 20.116173 548.3189122 22 545 C22.72916667 543.72916667 23.45833333 542.45833333 24.1875 541.1875 C25.15977169 539.47764288 26.12034966 537.75930068 27 536 C27.66 536 28.32 536 29 536 C29.103125 535.278125 29.20625 534.55625 29.3125 533.8125 C30.07674981 530.68602348 31.26229078 528.70310324 33 526 C35.59727639 521.55311047 35.59727639 521.55311047 38 517 C38.66 517 39.32 517 40 517 C40.66 514.69 41.32 512.38 42 510 C42.66 510 43.32 510 44 510 C44.144375 509.401875 44.28875 508.80375 44.4375 508.1875 C44.8872439 506.43849596 45.42892341 504.71322977 46 503 C46.66 503 47.32 503 48 503 C48.144375 502.21625 48.28875 501.4325 48.4375 500.625 C49 498 49 498 50 496 C50.66 496 51.32 496 52 496 C52.20625 495.030625 52.4125 494.06125 52.625 493.0625 C53.79002706 488.96849646 55.92745726 485.92649756 58.34765625 482.46484375 C62.45974836 476.33072999 65.77186234 469.6356163 69 463 C69.66 463 70.32 463 71 463 C71.66 460.69 72.32 458.38 73 456 C73.66 456 74.32 456 75 456 C75.66 453.69 76.32 451.38 77 449 C77.66 449 78.32 449 79 449 C79.144375 448.401875 79.28875 447.80375 79.4375 447.1875 C79.8872439 445.43849596 80.42892341 443.71322977 81 442 C81.66 442 82.32 442 83 442 C83.33 440.35 83.66 438.7 84 437 C84.66 437 85.32 437 86 437 C86.66 434.69 87.32 432.38 88 430 C88.66 430 89.32 430 90 430 C90.20625 429.21625 90.4125 428.4325 90.625 427.625 C92.14199571 423.62564767 94.14229269 420.29675323 96.3828125 416.66796875 C97.88494457 414.18981367 99.2670344 411.68424286 100.625 409.125 C104.09753511 402.66145465 107.93338545 396.41805282 111.77392578 390.16845703 C114.00564785 386.50057052 116.11926395 382.93621206 117.73828125 378.953125 C119 376 119 376 121 375 C122.10144685 373.01111799 123.13418595 370.9837464 124.125 368.9375 C124.66382813 367.83277344 125.20265625 366.72804688 125.7578125 365.58984375 C126.16773438 364.73519531 126.57765625 363.88054687 127 363 C127.66 363 128.32 363 129 363 C129.1546875 361.9171875 129.1546875 361.9171875 129.3125 360.8125 C130.07674981 357.68602348 131.26229078 355.70310324 133 353 C135.59727639 348.55311047 135.59727639 348.55311047 138 344 C138.66 344 139.32 344 140 344 C140.144375 343.401875 140.28875 342.80375 140.4375 342.1875 C140.8872439 340.43849596 141.42892341 338.71322977 142 337 C142.66 337 143.32 337 144 337 C144.144375 336.401875 144.28875 335.80375 144.4375 335.1875 C144.8872439 333.43849596 145.42892341 331.71322977 146 330 C146.66 330 147.32 330 148 330 C148.268125 328.948125 148.53625 327.89625 148.8125 326.8125 C149.89901189 323.32422498 151.07828099 321.05666365 153 318 C153.59296875 317.03964844 154.1859375 316.07929688 154.796875 315.08984375 C155.76367188 313.52943359 155.76367188 313.52943359 156.75 311.9375 C157.81033999 310.20633267 158.86890979 308.47409209 159.92724609 306.74169922 C160.97571191 305.03943361 162.04428519 303.34960474 163.11328125 301.66015625 C163.75652344 300.61730469 164.39976562 299.57445312 165.0625 298.5 C165.65160156 297.5615625 166.24070312 296.623125 166.84765625 295.65625 C168.18276441 292.57871255 167.99829398 291.14890443 167 288 C166.34 288 165.68 288 165 288 C164.566875 286.7934375 164.566875 286.7934375 164.125 285.5625 C163.26737432 282.8673532 163.26737432 282.8673532 161 282 C159.96898053 279.68020619 158.97063483 277.34570085 158 275 C157.01 273.515 157.01 273.515 156 272 C156 271.01 156 270.02 156 269 C155.34 269 154.68 269 154 269 C153.566875 267.7934375 153.566875 267.7934375 153.125 266.5625 C152.26737432 263.8673532 152.26737432 263.8673532 150 263 C149.33333333 261 148.66666667 259 148 257 C147.34 256.67 146.68 256.34 146 256 C144.89270545 254.07801205 143.86126017 252.11181397 142.875 250.125 C142.33617187 249.05507813 141.79734375 247.98515625 141.2421875 246.8828125 C140 244 140 244 140 241 C139.34 241 138.68 241 138 241 C137.16151196 239.54462432 136.32936066 238.08559627 135.5 236.625 C135.0359375 235.81289063 134.571875 235.00078125 134.09375 234.1640625 C133 232 133 232 133 230 C132.34 229.67 131.68 229.34 131 229 C129.42451317 226.37418862 129 225.12900213 129 222 C128.01 221.67 127.02 221.34 126 221 C125.67 219.02 125.34 217.04 125 215 C124.34 215 123.68 215 123 215 C122.34 213.02 121.68 211.04 121 209 C120.34 209 119.68 209 119 209 C117.5393715 206.35261084 117 205.10551666 117 202 C116.34 202 115.68 202 115 202 C114.01 198.535 114.01 198.535 113 195 C112.34 195 111.68 195 111 195 C110.443125 193.865625 109.88625 192.73125 109.3125 191.5625 C107.33398506 187.58419576 105.17734394 183.72829946 102.953125 179.8828125 C102 178 102 178 102 176 C101.34 176 100.68 176 100 176 C99.62875 175.21625 99.2575 174.4325 98.875 173.625 C96.9554986 169.73985534 94.62589574 166.11988061 92.3046875 162.46484375 C90.96856557 159.9406134 90.41102926 157.81204162 90 155 C89.34 155 88.68 155 88 155 C86.5393715 152.35261084 86 151.10551666 86 148 C85.34 148 84.68 148 84 148 C83.16180842 146.37750059 82.3295884 144.75191503 81.5 143.125 C81.0359375 142.22007812 80.571875 141.31515625 80.09375 140.3828125 C79 138 79 138 79 136 C78.34 136 77.68 136 77 136 C75.5393715 133.35261084 75 132.10551666 75 129 C74.34 129 73.68 129 73 129 C71.5393715 126.35261084 71 125.10551666 71 122 C70.34 122 69.68 122 69 122 C68.01 118.535 68.01 118.535 67 115 C66.34 115 65.68 115 65 115 C64.5771875 114.13375 64.154375 113.2675 63.71875 112.375 C62.08696259 109.1707629 60.33536964 106.09114887 58.5 103 C56.67706828 99.92979921 54.95497257 96.90641358 53.40625 93.6875 C52.27937842 90.89587502 52.27937842 90.89587502 50 90 C49.33333333 88 48.66666667 86 48 84 C47.01 83.505 47.01 83.505 46 83 C44.6250851 80.09740189 44 78.23861295 44 75 C43.01 74.67 42.02 74.34 41 74 C40.67 72.02 40.34 70.04 40 68 C39.34 68 38.68 68 38 68 C37.16151196 66.54462432 36.32936066 65.08559627 35.5 63.625 C35.0359375 62.81289062 34.571875 62.00078125 34.09375 61.1640625 C33 59 33 59 33 57 C32.01 56.505 32.01 56.505 31 56 C30.05474707 54.14325317 29.116368 52.28258145 28.21875 50.40234375 C26.41169184 46.8403541 24.28856192 43.48616585 22.171875 40.1015625 C21 38 21 38 21 36 C20.34 36 19.68 36 19 36 C18.34 33.69 17.68 31.38 17 29 C16.34 29 15.68 29 15 29 C14.443125 27.845 13.88625 26.69 13.3125 25.5 C11.44510701 21.7317482 9.30072886 18.24776906 6.953125 14.76171875 C6 13 6 13 6 10 C5.34 10 4.68 10 4 10 C3.32845067 8.71086513 2.66291141 7.41859796 2 6.125 C1.62875 5.40570313 1.2575 4.68640625 0.875 3.9453125 C0 2 0 2 0 0 Z " fill="#000000" transform="translate(509,122)"/>
<path d="" fill="#000000" transform="translate(0,0)"/>
</svg>
